<mxfile host="app.diagrams.net" agent="Mozilla/5.0 (Windows NT 10.0; Win64; x64) AppleWebKit/537.36 (KHTML, like Gecko) Chrome/131.0.0.0 Safari/537.36" version="25.0.3">
  <diagram name="PÃ¡gina-1" id="Nvza7VRXQfN1U-CQ1QTX">
    <mxGraphModel dx="1114" dy="600" grid="1" gridSize="10" guides="1" tooltips="1" connect="1" arrows="1" fold="1" page="1" pageScale="1" pageWidth="827" pageHeight="1169" math="0" shadow="0">
      <root>
        <mxCell id="0" />
        <mxCell id="1" parent="0" />
        <mxCell id="Zyyf31zuSQl_BQQz832b-7" value="&lt;b&gt;&lt;font style=&quot;font-size: 24px;&quot;&gt;Imc&lt;/font&gt;&lt;/b&gt;" style="html=1;whiteSpace=wrap;strokeWidth=2;" vertex="1" parent="1">
          <mxGeometry x="274" y="190" width="296" height="40" as="geometry" />
        </mxCell>
        <mxCell id="Zyyf31zuSQl_BQQz832b-8" value="&lt;font size=&quot;3&quot;&gt;+ peso: double&lt;/font&gt;&lt;div&gt;&lt;font size=&quot;3&quot;&gt;&lt;br&gt;&lt;/font&gt;&lt;div&gt;&lt;font size=&quot;3&quot;&gt;+ altura: double&lt;/font&gt;&lt;/div&gt;&lt;/div&gt;" style="html=1;whiteSpace=wrap;align=left;strokeWidth=2;" vertex="1" parent="1">
          <mxGeometry x="274" y="230" width="296" height="80" as="geometry" />
        </mxCell>
        <mxCell id="Zyyf31zuSQl_BQQz832b-9" value="&lt;font size=&quot;3&quot;&gt;calcularImc(peso,altura): double&lt;/font&gt;&lt;div&gt;&lt;font size=&quot;3&quot;&gt;&lt;br&gt;&lt;/font&gt;&lt;div&gt;&lt;font size=&quot;3&quot;&gt;classificarImc(double: imc): String&lt;/font&gt;&lt;/div&gt;&lt;/div&gt;" style="html=1;whiteSpace=wrap;strokeWidth=2;movable=1;resizable=1;rotatable=1;deletable=1;editable=1;locked=0;connectable=1;" vertex="1" parent="1">
          <mxGeometry x="274" y="310" width="296" height="70" as="geometry" />
        </mxCell>
      </root>
    </mxGraphModel>
  </diagram>
</mxfile>
